<svg xmlns="http://www.w3.org/2000/svg" width="140" height="42" viewBox="0 0 140 42" role="img" aria-label="Download on the App Store">
  <rect width="140" height="42" rx="8" fill="#000"/>
  <path fill="#fff" d="M28.2 30.1c-.7 1.1-1.5 2.1-2.6 2.1-1.1 0-1.5-.7-2.8-.7-1.3 0-1.7.7-2.8.7-1.1 0-2-1.2-2.7-2.3-1.4-2.1-2.5-6-1-8.7.8-1.3 2.2-2.2 3.7-2.2 1.1 0 2.1.8 2.8.8.7 0 2-.9 3.4-.8.6 0 2.2.2 3.2 1.8-.1.1-1.9 1.1-1.9 3.3 0 2.6 2.3 3.5 2.3 3.5-.1.1-.4 1.3-1.2 2.5M26.5 11.8c.6-.8 1.6-1.3 2.5-1.4.1 1-.4 2-.9 2.7-.6.7-1.5 1.3-2.4 1.2-.1-.9.3-1.9.8-2.5"/>
  <text x="40" y="17" fill="#fff" font-family="-apple-system,BlinkMacSystemFont,'SF Pro Text','Helvetica Neue',Arial,sans-serif" font-size="8.5">Download on the</text>
  <text x="40" y="31" fill="#fff" font-family="-apple-system,BlinkMacSystemFont,'SF Pro Display','Helvetica Neue',Arial,sans-serif" font-size="14" font-weight="600">App Store</text>
</svg>
