<svg xmlns="http://www.w3.org/2000/svg" viewBox="0 0 64 64" role="img" aria-label="Bitcoin Pattern">
  <defs>
    <linearGradient id="btc" x1="0%" y1="0%" x2="100%" y2="100%">
      <stop offset="0%" stop-color="#fbbf24"/>
      <stop offset="50%" stop-color="#f7931a"/>
      <stop offset="100%" stop-color="#ea580c"/>
    </linearGradient>
  </defs>
  <rect width="64" height="64" rx="14" fill="url(#btc)"/>
  <path fill="#ffffff" d="M28 18h8.6c4.2 0 6.8 2 6.8 5.2 0 2.1-1.1 3.7-2.9 4.6 2.3.9 3.6 2.8 3.6 5.4 0 3.8-3.1 6.2-8 6.2H28V18zm2.8 4v5.4h5.4c1.9 0 3-.8 3-2.2s-1.1-2.2-3-2.2h-5.4zm0 9v6.2h5.8c2.2 0 3.5-1 3.5-2.6 0-1.6-1.3-2.6-3.5-2.6h-5.8z"/>
  <path fill="#ffffff" d="M39.2 16v3.2M39.2 44.8v3.2" stroke="#ffffff" stroke-width="2.4" stroke-linecap="round"/>
</svg>
