<svg xmlns="http://www.w3.org/2000/svg" viewBox="0 0 32 32" role="img" aria-label="Bitcoin Pattern">
  <rect width="32" height="32" rx="8" fill="#07070d"/>
  <path fill="#f7931a" d="M11 8h5.4c2.6 0 4.2 1.2 4.2 3.1 0 1.3-.7 2.3-1.9 2.8 1.4.5 2.2 1.7 2.2 3.2 0 2.3-1.9 3.7-4.9 3.7H11V8zm1.8 2v3.4h3.4c1.2 0 1.9-.5 1.9-1.4s-.7-1.4-1.9-1.4h-3.4zm0 5.6v3.8h3.7c1.4 0 2.2-.6 2.2-1.6 0-1-.8-1.6-2.2-1.6h-3.7z"/>
  <path fill="#f7931a" d="M19.6 7v2M19.6 23v2" stroke="#f7931a" stroke-width="1.5" stroke-linecap="round"/>
</svg>
